<?xml version="1.0" encoding="UTF-8"?>
<svg width="100px" height="36px" viewBox="0 0 100 36" version="1.1" xmlns="http://www.w3.org/2000/svg" xmlns:xlink="http://www.w3.org/1999/xlink">
    <!-- Generator: Sketch 59.1 (86144) - https://sketch.com -->
    <title>Mine logo - Website</title>
    <desc>Created with Sketch.</desc>
    <defs>
        <polygon id="path-1" points="0.0507552216 0.0230285816 27.8262489 0.0230285816 27.8262489 24.2857143 0.0507552216 24.2857143"></polygon>
        <polygon id="path-3" points="0 0.144477126 21.8214638 0.144477126 21.8214638 25.3328476 0 25.3328476"></polygon>
    </defs>
    <g id="Assets" stroke="none" stroke-width="1" fill="none" fill-rule="evenodd">
        <g id="Mine-logo---Website">
            <g id="Group-11">
                <g id="Group-3" transform="translate(2.678571, 10.569821)">
                    <mask id="mask-2" fill="white">
                        <use xlink:href="#path-1"></use>
                    </mask>
                    <g id="Clip-2"></g>
                    <path d="M22.1329643,9.06614286 C21.9793929,9.54864286 22.0095714,10.2007857 22.3965357,10.5729286 C22.7785,10.94025 23.3093929,10.9206071 23.7968929,10.8832857 C24.7408214,10.8109643 25.8308214,10.5398929 26.7379643,10.9034643 C27.8985,11.3688214 28.06225,12.6004286 27.5520714,13.6168571 C27.2106429,14.2972143 26.6524286,14.78025 26.1335,15.3220357 C24.24725,17.2918571 22.9418929,19.6623929 21.5079643,21.9563214 C20.9213571,22.8945357 20.1649286,24.1441786 18.9481429,24.2729286 C17.8627857,24.3879286 16.6542143,23.7215 16.4883214,22.5757857 C16.3188571,21.4065 17.4333214,20.334 18.191,19.579 C18.7240357,19.0479286 19.221,18.4982857 19.7104643,17.9254286 C20.2749286,17.2647143 20.8352857,16.6059643 21.3515357,15.9059643 C21.9567143,15.0854286 22.9606429,13.7420357 22.2204643,12.7186429 C21.6817143,11.9736429 20.5395714,12.1022143 19.796,12.4013214 C18.8235,12.7925714 18.0577857,13.5836429 17.4285,14.4004286 C16.7195714,15.3204286 16.2261786,16.4116786 15.6383214,17.4088214 C15.1526071,18.23275 14.6736786,19.0593571 13.8656429,19.6098929 C13.1229643,20.1157857 11.9636786,19.9506071 11.4408214,19.1904286 C10.8493929,18.3307857 11.2490357,17.2041786 11.7320714,16.3950714 C12.1529643,15.6900714 12.7849286,15.0925714 13.3549286,14.5086429 C14.2706429,13.5704286 15.1985,12.6398929 16.0865357,11.6750714 C16.5299286,11.1934643 16.971,10.7113214 17.3731429,10.1943571 C17.7363571,9.72739286 18.2868929,9.11292857 18.1245714,8.46221429 C17.8188571,7.2365 15.8836786,7.68042857 15.0895714,8.06792857 C13.9263571,8.63560714 13.03725,9.6015 12.1783214,10.5415 C11.2668929,11.5388214 10.5154643,12.6684643 9.76492857,13.78775 C8.2335,16.0711429 6.82117857,18.4468571 5.23867857,20.694 C4.58117857,21.62775 3.78635714,22.7665 2.58814286,23.0150714 C1.33260714,23.2756071 0.214928571,22.4057857 0.0668928571,21.1481071 C-0.0568571429,20.0966786 0.552428571,19.0732857 1.16492857,18.27025 C1.70796429,17.5582857 2.26867857,16.8584643 2.83975,16.1686429 C4.36671429,14.3248929 5.90153571,12.4795357 7.4635,10.6657857 C8.79171429,9.12328571 10.0806429,7.54578571 11.3111786,5.92364286 C12.0163571,4.99435714 12.7335,4.07864286 13.3806429,3.10560714 C13.9806429,2.20346429 14.6076071,1.23685714 15.4904643,0.580964286 C16.2054643,0.0495357143 17.3374286,-0.2435 18.111,0.355964286 C19.0861786,1.1115 18.6058214,2.51775 18.1995714,3.43685714 C17.8131429,4.31096429 17.4054643,5.48989286 18.5683214,5.94417857 C19.3854643,6.26364286 20.31725,6.00757143 21.1076071,6.41810714 C22.051,6.90828571 22.4463571,8.08132143 22.1329643,9.06614286" id="Fill-1" fill="#2B2A35" mask="url(#mask-2)"></path>
                </g>
                <g id="Group-6" transform="translate(0.000000, 0.034107)">
                    <mask id="mask-4" fill="white">
                        <use xlink:href="#path-3"></use>
                    </mask>
                    <g id="Clip-5"></g>
                    <path d="M8.555875,19.6763214 C10.4801607,16.8956071 12.4965893,14.2691786 14.7248036,11.7323929 C16.5944464,9.60382143 18.5701607,7.56275 20.4951607,5.48453571 C21.2164107,4.70614286 21.7956964,3.80025 21.820875,2.70935714 C21.8460536,1.61828571 21.0612321,0.713285714 19.9367679,0.736678571 C18.7956964,0.760607143 17.9469464,1.73167857 17.2981964,2.55703571 C16.5485536,3.51078571 15.9085536,4.54525 15.2330179,5.55042857 C14.5942679,6.50078571 13.8667679,7.38935714 13.189625,8.31221429 C12.4376607,9.33703571 11.7092679,10.3859643 10.8644464,11.3393571 C10.217125,12.0700714 9.38908929,13.3832857 8.28051786,13.3686429 C7.85408929,13.3629286 7.53605357,13.079 7.37891071,12.6975714 C7.15569643,12.1563214 7.37516071,11.6934643 7.67873214,11.2461429 C8.18480357,10.50025 8.81105357,9.82953571 9.430875,9.17828571 C10.0060536,8.57417857 10.7680179,7.99775 11.1010536,7.2165 C11.4101607,6.49132143 11.3124821,5.5265 10.763375,4.94417857 C10.4090893,4.56846429 9.92158929,4.34096429 9.40248214,4.49346429 C8.834625,4.66007143 8.42694643,5.2415 7.94730357,5.56382143 C7.63408929,5.77417857 6.98444643,5.96364286 6.78783929,5.49846429 C6.60605357,5.06828571 7.172125,4.57685714 7.42605357,4.31596429 C8.13033929,3.59257143 9.37944643,2.844 9.44373214,1.73042857 C9.51301786,0.527035714 8.31498214,-0.107071429 7.265875,0.238107143 C6.20391071,0.587214286 5.44141071,1.47703571 4.81873214,2.36346429 C4.27444643,3.13810714 3.32426786,4.49578571 3.68551786,5.49560714 C3.85569643,5.96667857 4.28319643,6.204 4.757125,6.27721429 C5.25391071,6.35417857 5.94033929,6.08239286 6.37623214,6.37453571 C7.36944643,7.03989286 6.15641071,8.63203571 5.70641071,9.26525 C5.02033929,10.23025 4.23051786,11.1418571 3.39551786,11.9806071 C2.51051786,12.8697143 1.52855357,13.7031071 0.732660714,14.6748929 C0.107839286,15.43775 -0.317696429,16.56025 0.305160714,17.46275 C1.00516071,18.4770357 2.30391071,18.3023929 3.07444643,17.4956071 C3.87944643,16.6525714 4.28944643,15.4593571 5.19605357,14.7143571 C5.58105357,14.3979286 6.083375,14.114 6.59230357,14.2947143 C7.157125,14.49525 7.319625,15.069 7.17998214,15.6031071 C6.89301786,16.7011429 5.840875,17.6304286 5.08391071,18.4175714 C4.26569643,19.2682857 3.35891071,20.03025 2.54908929,20.8873929 C1.83855357,21.6397143 1.22998214,22.7182857 1.33605357,23.7913214 C1.39033929,24.3407857 1.69016071,24.8534643 2.17819643,25.1256071 C3.137125,25.66025 4.25944643,25.0663214 4.97408929,24.41025 C6.108375,23.3684643 6.939625,21.9866786 7.81944643,20.729 L8.555875,19.6763214 Z" id="Fill-4" fill="#2B2A35" mask="url(#mask-4)"></path>
                </g>
                <path d="M29.1238571,4.81933929 C28.5417143,5.42041071 27.9036786,5.96326786 27.3176071,6.55969643 C26.7515357,7.13576786 25.8583214,8.02701786 26.1401071,8.92951786 C26.416,9.81308929 27.5561786,9.85130357 28.1676071,9.32951786 C28.8352857,8.75916071 29.3968929,7.837375 30.4118929,8.10201786 C31.3731429,8.35291071 31.6461786,9.482375 31.4527857,10.3382679 C31.2418929,11.2709464 30.5354643,11.8577321 29.8983214,12.5138036 C29.1911786,13.2420179 28.5874286,14.0038036 28.0531429,14.8679107 C27.6379643,15.5393393 27.20475,16.239875 26.3254643,16.3084464 C25.5038571,16.3725536 24.8049286,15.6734464 24.6258214,14.907375 C24.3892143,13.8946964 24.9970714,13.0482679 25.5924286,12.3009464 C26.0577857,11.7171964 26.6354643,10.8416607 25.9317143,10.1943393 C25.1686786,9.492375 24.1204643,9.97094643 23.3270714,10.3146964 C22.4743929,10.6843393 21.5386786,10.5989821 21.0388571,9.71148214 C20.5995714,8.93201786 20.9436786,7.97523214 21.4131429,7.30076786 C22.1845714,6.19219643 23.2140357,5.263625 24.0217143,4.17541071 C25.0315357,2.81505357 25.7054643,0.608625 27.7786786,0.770053571 C28.6113571,0.835053571 29.4045714,1.45041071 29.71975,2.22130357 C30.0781429,3.09791071 29.7658214,4.15666071 29.1238571,4.81933929" id="Fill-7" fill="#2B2A35"></path>
                <path d="M37.7561429,28.0605536 L41.4470357,28.0605536 L41.4470357,11.451625 L48.1213214,28.0605536 L49.4438214,28.0605536 L55.9950714,11.451625 L55.9950714,28.0605536 L60.0857857,28.0605536 L60.0857857,6.069125 L54.6723929,6.069125 L49.0132857,21.0787679 L43.2309643,6.069125 L37.7561429,6.069125 L37.7561429,28.0605536 Z M62.4706071,28.0605536 L66.1923929,28.0605536 L66.1923929,11.9744821 L62.4706071,11.9744821 L62.4706071,28.0605536 Z M64.28525,9.32948214 C65.5157857,9.32948214 66.5000714,8.40680357 66.5000714,7.20716071 C66.5000714,5.97698214 65.5157857,5.054125 64.28525,5.054125 C63.05525,5.054125 62.0709643,5.97698214 62.0709643,7.20716071 C62.0709643,8.40680357 63.05525,9.32948214 64.28525,9.32948214 L64.28525,9.32948214 Z M68.5729286,28.0605536 L72.2945357,28.0605536 L72.2945357,18.5873393 C72.2945357,16.0344821 73.9861429,14.7426964 76.07775,14.7426964 C78.2922143,14.7426964 79.2763214,15.8500179 79.2763214,18.2798393 L79.2763214,28.0605536 L82.9979286,28.0605536 L82.9979286,17.9414464 C82.9979286,13.5123393 80.7218571,11.6362679 77.4923929,11.6362679 C74.8473929,11.6362679 73.0634643,12.9587679 72.2945357,14.5273393 L72.2945357,11.9744821 L68.5729286,11.9744821 L68.5729286,28.0605536 Z M92.4770357,28.3680536 C96.5984643,28.3680536 99.3357857,26.5226964 99.8584643,23.1394821 L96.2600714,23.1394821 C95.9831071,24.7080536 94.8143571,25.6000179 92.5691786,25.6000179 C89.8011429,25.6000179 88.2632857,23.8775179 88.1400714,20.8325179 L99.92025,20.8325179 L99.92025,19.7560893 C99.92025,14.0044821 96.3216786,11.6362679 92.3231071,11.6362679 C87.7404286,11.6362679 84.3263214,14.9580536 84.3263214,19.9407321 L84.3263214,20.1868036 C84.3263214,25.261625 87.7404286,28.3680536 92.4770357,28.3680536 L92.4770357,28.3680536 Z M88.2016786,18.3412679 C88.5707857,15.8500179 90.0779286,14.342875 92.3231071,14.342875 C94.6298929,14.342875 96.0447143,15.5732321 96.2293571,18.3412679 L88.2016786,18.3412679 Z" id="Fill-9" fill="#2B2A35"></path>
            </g>
        </g>
    </g>
</svg>